<?xml version="1.0" standalone="no"?>
<!DOCTYPE svg PUBLIC "-//W3C//DTD SVG 20010904//EN"
 "http://www.w3.org/TR/2001/REC-SVG-20010904/DTD/svg10.dtd">
<svg version="1.0" xmlns="http://www.w3.org/2000/svg"
 width="260.000000pt" height="260.000000pt" viewBox="0 0 260.000000 260.000000"
 preserveAspectRatio="xMidYMid meet">
<metadata>
Created by potrace 1.11, written by Peter Selinger 2001-2013
</metadata>
<g transform="translate(0.000000,260.000000) scale(0.100000,-0.100000)"
fill="#000000" stroke="none">
<path d="M1096 2585 c-183 -30 -352 -96 -513 -200 -119 -77 -309 -270 -382
-388 -206 -334 -256 -737 -136 -1101 67 -207 159 -353 325 -518 65 -65 122
-118 128 -118 5 0 12 28 16 62 29 272 112 704 180 940 83 290 192 535 307 691
l49 67 54 0 c51 0 57 -3 111 -51 127 -117 268 -381 466 -876 88 -220 241 -679
265 -793 9 -47 20 -88 23 -92 27 -31 324 256 410 395 206 334 256 737 136
1101 -68 211 -159 354 -329 521 -182 179 -350 274 -596 337 -97 25 -140 30
-270 33 -106 3 -183 0 -244 -10z"/>
<path d="M1150 1719 c-37 -71 -88 -211 -130 -355 -67 -229 -55 -318 51 -371
59 -29 153 -43 297 -43 89 0 114 3 118 14 10 27 -17 160 -57 282 -41 122 -225
504 -247 512 -6 2 -21 -16 -32 -39z"/>
<path d="M840 647 c-38 -155 -119 -447 -135 -488 -5 -13 12 -24 82 -54 292
-123 622 -137 921 -39 59 19 111 39 115 43 5 5 3 19 -4 32 -8 13 -63 148 -124
299 l-111 275 -45 7 c-37 7 -502 76 -620 93 l-37 5 -42 -173z"/>
</g>
</svg>
